<svg width="20" height="20" viewBox="0 0 20 20" fill="none" xmlns="http://www.w3.org/2000/svg">
<path d="M8.7 15.524C4.93672 15.524 1.875 12.4623 1.875 8.69902C1.875 4.93574 4.93672 1.87402 8.7 1.87402C12.4633 1.87402 15.525 4.93574 15.525 8.69902L8.7 15.524ZM8.7 15.524C10.1733 15.5256 11.6072 15.048 12.7852 14.1631L8.7 15.524ZM14.1453 12.7701L14.1331 12.7864L14.1475 12.8008L17.8224 16.4757C17.9845 16.6572 18.0709 16.8938 18.0641 17.1371C18.0573 17.3805 17.9576 17.6121 17.7853 17.7844C17.6131 17.9566 17.3815 18.0563 17.138 18.0632C16.8948 18.07 16.6582 17.9835 16.4767 17.8214L12.8017 14.1465L12.7873 14.1321L12.7711 14.1443C11.5972 15.0262 10.1683 15.5022 8.70003 15.5006H8.7C4.94966 15.5006 1.89844 12.4494 1.89844 8.69902C1.89844 4.94869 4.94966 1.89746 8.7 1.89746C12.4503 1.89746 15.5016 4.94869 15.5016 8.69902V8.69905C15.5032 10.1673 15.0271 11.5962 14.1453 12.7701ZM3.80156 8.69902V8.69905C3.80312 9.99771 4.3197 11.2427 5.23799 12.161C6.15629 13.0793 7.40131 13.5959 8.69997 13.5975H8.7C9.66882 13.5975 10.6159 13.3102 11.4214 12.7719C12.227 12.2337 12.8548 11.4686 13.2256 10.5736C13.5963 9.6785 13.6933 8.69359 13.5043 7.74339C13.3153 6.79318 12.8488 5.92036 12.1637 5.23531C11.4787 4.55025 10.6058 4.08372 9.65564 3.89471C8.70543 3.7057 7.72052 3.80271 6.82545 4.17346C5.93038 4.54421 5.16535 5.17205 4.6271 5.9776C4.08885 6.78314 3.80156 7.73021 3.80156 8.69902Z" fill="#B3B3B3" stroke="#B3B3B3" stroke-width="0.046875"/>
</svg>
